<?xml version="1.0" encoding="utf-8"?>
<!-- Generator: Adobe Illustrator 24.3.0, SVG Export Plug-In . SVG Version: 6.00 Build 0)  -->
<svg version="1.1" id="Layer_1" xmlns="http://www.w3.org/2000/svg" xmlns:xlink="http://www.w3.org/1999/xlink" x="0px" y="0px"
	 viewBox="0 0 100 100" style="enable-background:new 0 0 100 100;" xml:space="preserve">
<g>
	<path d="M94.4,22.7c-0.4-0.1-0.8-0.2-1.2-0.2H77.5h-7.8H46.1h-7.8h-9.8L25,12.8c-2.1-6-7.8-10-14.2-9.9H6.8c-2.2,0-3.9,1.8-3.9,3.9
		s1.8,3.9,3.9,3.9h3.9c3,0,5.7,1.9,6.7,4.7l15.2,42.4c1.7,4.7,6.1,7.8,11.1,7.8h32c5.1,0,9.6-3.2,11.2-8l10-30
		C97.6,25.6,96.5,23.4,94.4,22.7z M79.4,55.2c-0.5,1.6-2,2.7-3.7,2.7h-32c-1.7,0-3.1-1-3.7-2.6l-8.9-24.9h11h45.6L79.4,55.2z"/>
	<path d="M42.1,73.5c-6.5,0-11.8,5.3-11.8,11.8c0,6.5,5.3,11.8,11.8,11.8s11.8-5.3,11.8-11.8C53.9,78.8,48.7,73.5,42.1,73.5z
		 M42.1,89.2c-2.2,0-3.9-1.8-3.9-3.9c0-2.2,1.8-3.9,3.9-3.9s3.9,1.8,3.9,3.9C46.1,87.5,44.3,89.2,42.1,89.2z"/>
	<path d="M73.5,73.5c-6.5,0-11.8,5.3-11.8,11.8c0,6.5,5.3,11.8,11.8,11.8c6.5,0,11.8-5.3,11.8-11.8C85.3,78.8,80.1,73.5,73.5,73.5z
		 M73.5,89.2c-2.2,0-3.9-1.8-3.9-3.9c0-2.2,1.8-3.9,3.9-3.9c2.2,0,3.9,1.8,3.9,3.9C77.5,87.5,75.7,89.2,73.5,89.2z"/>
</g>
</svg>
