<svg xmlns="http://www.w3.org/2000/svg" xmlns:xlink="http://www.w3.org/1999/xlink" x="0px" y="0px" viewBox="0 0 100 100" xml:space="preserve"><path d="M38.8,70.9c-2.7,0-4.8,2.2-4.8,4.8v6.2c0,7.1,6.6,13,14.5,13h33.7C89.6,95,95,88.7,95,80V49.5
	c0-9.1-4.7-15.5-11.4-15.5h-7.9c-2.7,0-4.8,2.2-4.8,4.8c0,2.7,2.2,4.8,4.8,4.8l6.4,0c0.5,0.2,3.3-0.3,3.3,5.9v31.6
	c0,0.2,0,4.2-3.2,4.2H48.4c-2.8,0-4.8-2-4.8-3.4v-6.2C43.6,73,41.4,70.9,38.8,70.9z"></path> <g><path d="M48.4,14.7H19.5c-2.7,0-4.8,2.2-4.8,4.8v28.9c0,2.7,2.2,4.8,4.8,4.8h28.9c2.7,0,4.8-2.2,4.8-4.8V19.5
		C53.2,16.8,51.1,14.7,48.4,14.7z"  style="fill: none"></path> <path d="M54.8,5H16.3C11,5,5,8.8,5,14.1v38.5C5,58,11,62.8,16.3,62.8h38.5c5.3,0,8-4.9,8-10.2V14.1
		C62.8,8.8,60.1,5,54.8,5z M53.2,48.4c0,2.7-2.2,4.8-4.8,4.8H19.5c-2.7,0-4.8-2.2-4.8-4.8V19.5c0-2.7,2.2-4.8,4.8-4.8h28.9
		c2.7,0,4.8,2.2,4.8,4.8V48.4z" ></path></g></svg>