<?xml version="1.0" encoding="utf-8"?>
<!-- Generator: Adobe Illustrator 24.3.0, SVG Export Plug-In . SVG Version: 6.00 Build 0)  -->
<svg version="1.1" id="Layer_1" xmlns="http://www.w3.org/2000/svg" xmlns:xlink="http://www.w3.org/1999/xlink" x="0px" y="0px"
	 viewBox="0 0 100 100" style="enable-background:new 0 0 100 100;" xml:space="preserve">
<g>
	<path d="M52.2,69.6l-14,14c-3,3-7,4.5-10.9,4.5s-8-1.5-10.9-4.5c-6.1-6.1-6.1-15.8,0-21.8l13.4-13.4c2.8-3,6.8-4.5,10.9-4.5
		s8,1.7,10.9,4.5c3.3,3.3,8.3,4,12.3,2c-1.2-3.2-3.2-6.2-5.7-8.7C48.5,32,32.7,32,23,41.7L9.7,55c-9.7,9.7-9.7,25.5,0,35.3
		c4.7,4.7,10.9,7.2,17.6,7.2s12.9-2.6,17.7-7.2l13.4-13.4c1.9-2,3.6-4.3,4.7-6.6c-1.3,0.1-2.6,0.2-3.9,0.2
		C56.8,70.5,54.4,70.2,52.2,69.6z"/>
	<path d="M90.2,9.8C80.4,0,64.6,0,54.9,9.8L41.5,23.2c-1.9,1.9-3.6,4.3-4.7,6.6c3.7-0.5,7.4-0.2,10.9,0.6c0.1-0.2,0.4-0.4,0.5-0.6
		l13.4-13.4c6.1-6.1,15.8-6.1,21.8,0c6.1,6.1,6.1,15.8,0,21.8L70.1,51.7c-0.5,0.6-1.1,1.1-1.7,1.4c0,0-0.1,0-0.1,0.1
		c-2.7,2-5.9,3-9.1,3c-3.9,0-8-1.5-10.9-4.5c-2-2-4.7-3.1-7.6-3.1c-1.7,0-3.3,0.4-4.7,1.2c1.2,3.2,3.2,6.2,5.7,8.7
		c9.7,9.7,25.5,9.7,35.3,0L90.3,45c4.7-4.7,7.4-10.9,7.4-17.7S94.9,14.4,90.2,9.8z"/>
</g>
</svg>
