<?xml version="1.0" encoding="utf-8"?>
<!-- Generator: Adobe Illustrator 24.3.0, SVG Export Plug-In . SVG Version: 6.00 Build 0)  -->
<svg version="1.1" id="Layer_1" xmlns="http://www.w3.org/2000/svg" xmlns:xlink="http://www.w3.org/1999/xlink" x="0px" y="0px"
	 viewBox="0 0 100 100" style="enable-background:new 0 0 100 100;" xml:space="preserve">
<path d="M76.4,69.4c13.9-17.8,10.8-43.5-7-57.4C51.6-1.9,25.9,1.2,12,19C-1.9,36.8,1.2,62.5,19,76.4C33.8,88,54.6,88,69.4,76.4
	l18.8,18.8c1.9,1.9,5.1,2,7,0c1.9-1.9,2-5.1,0-7c0,0,0,0,0,0L76.4,69.4z M44.3,75.1c-17.1,0-30.9-13.8-30.9-30.9
	c0-17.1,13.8-30.9,30.9-30.9c17.1,0,30.9,13.8,30.9,30.9c0,0,0,0,0,0C75.1,61.3,61.3,75.1,44.3,75.1z"/>
</svg>
