<svg class="heart-empty" xmlns="http://www.w3.org/2000/svg" xmlns:xlink="http://www.w3.org/1999/xlink" x="0px" y="0px"
	 viewBox="0 0 100 100" xml:space="preserve">
<path d="M10.4,55.7c-11.1-11-11.2-29-0.2-40.1c5.4-5.4,12.6-8.4,20.1-8.4c7.2,0,14.1,2.7,19.4,7.7c5.3-5,12.2-7.7,19.4-7.7
	c7.6,0,14.7,3,20.1,8.4c5.6,5.3,8.8,12.5,8.8,20.1s-3.1,14.7-8.8,20.1L49.8,95.1L10.4,55.7z M30.5,16.4c-5.1,0-9.9,2-13.6,5.7
	c-7.6,7.6-7.6,19.5,0,27.1l32.9,33l33-33c3.8-3.6,6-8.5,6.2-13.6c0-4.9-2.1-9.6-5.9-13.2l-0.2-0.2c-3.7-3.7-8.5-5.7-13.6-5.7
	c-5.1,0-9.9,2-13.6,5.7l-5.8,5.8l-5.8-5.8C40.4,18.4,35.7,16.4,30.5,16.4z"/>
<path d="M88.5,16.3c-5.4-5.4-12.4-8.1-19.4-8.1s-14,2.7-19.4,8.1c-5.4-5.4-12.4-8.1-19.4-8.1s-14,2.7-19.4,8.1
	C0.3,27.1,0.3,44.3,11.1,55l38.7,38.7L88.5,55C99.8,44.3,99.8,27,88.5,16.3z M83.5,49.9L83.5,49.9L49.8,83.6L16.2,49.9
	c-8-8-8-20.5,0-28.5c3.8-3.8,8.9-6,14.3-6s10.4,2.1,14.3,6l5.1,5.1l5.1-5.1c3.8-3.8,8.9-6,14.3-6c5.3,0,10.4,2.1,14.3,6l0.1,0.1
	l0.1,0.1c4,3.8,6.2,8.8,6.2,14C89.8,40.9,87.6,46,83.5,49.9L83.5,49.9z"/>
</svg>